<svg width="128" height="128" viewBox="0 0 128 128" fill="none" xmlns="http://www.w3.org/2000/svg">
  <rect width="128" height="128" rx="28" fill="#FFF2E8"/>
  <path d="M31 76.5c0-8.56 6.94-15.5 15.5-15.5h22.2c1.82-9.14 9.9-16 19.58-16 11.02 0 19.95 8.93 19.95 19.95 0 .52-.02 1.03-.06 1.55 4.84 1.17 8.43 5.53 8.43 10.73 0 6.1-4.95 11.05-11.05 11.05H42.05C35.95 88.28 31 83.33 31 77.23v-.73Z" fill="#F38020"/>
  <path d="M41.5 88.28h40.12c4.09 0 7.41-3.32 7.41-7.41 0-3.46-2.39-6.37-5.6-7.16-1.42 7.11-7.7 12.47-15.23 12.47H41.5c-1.66 0-3-1.34-3-3s1.34-3 3-3h26.7c4.92 0 8.91-3.99 8.91-8.91 0-1.66 1.34-3 3-3h27.89c.06-.5.09-1 .09-1.51 0-9.13-7.4-16.53-16.53-16.53-7.92 0-14.54 5.57-16.15 13.02l-.44 2.04H46.5c-5.25 0-9.5 4.25-9.5 9.5 0 5.25 4.25 9.5 9.5 9.5Z" fill="#FAAE40"/>
</svg>
