<svg width="29" height="29" viewBox="0 0 29 29" fill="none" xmlns="http://www.w3.org/2000/svg">
<path d="M21.4811 4.86782C21.6285 4.89003 21.6969 5.06334 21.6044 5.18028L20.4928 6.58461C19.1646 8.26245 18.4422 10.3397 18.4422 12.4795V13.1877C18.4422 13.3374 18.3555 13.4735 18.2199 13.5368L17.7719 13.7459C15.9986 14.5733 14.5733 15.9986 13.7457 17.7721L13.5366 18.2201C13.4733 18.3557 13.3371 18.4424 13.1875 18.4424L12.4792 18.4424C10.3394 18.4424 8.26222 19.1649 6.58437 20.493L5.18027 21.6044C5.06333 21.6969 4.89002 21.6286 4.86781 21.4811L3.97398 15.5472C3.43247 11.9523 2.16031 8.50635 0.235959 5.42192C0.0642586 5.14671 0.105092 4.78944 0.33446 4.56007L4.56006 0.334467C4.78943 0.105098 5.14671 0.0642643 5.42191 0.235964C8.50634 2.16032 11.9523 3.43247 15.5472 3.97399L21.4811 4.86782Z" fill="#128B58"/>
<path d="M12.4797 20.5353C12.5678 20.5353 12.64 20.6052 12.643 20.6932L12.6791 21.7639C12.7503 23.8614 12.8211 25.9588 12.8919 28.0563C12.9047 28.4342 12.4221 28.6023 12.1972 28.2983C11.2316 26.9928 10.2659 25.6871 9.29999 24.3816L7.84607 22.4158C7.78052 22.3272 7.7971 22.2025 7.88354 22.1341C8.45777 21.6797 9.09576 21.3154 9.77222 21.0501C9.95414 20.9784 10.1393 20.9139 10.3266 20.8572C11.0216 20.6455 11.7479 20.5353 12.4797 20.5353Z" fill="#128B58"/>
<path d="M20.8575 12.7513V12.7495L20.7945 12.7473C20.6501 12.7424 20.5355 12.6239 20.5355 12.4794C20.5355 11.7477 20.6457 11.0213 20.8575 10.3264C20.9142 10.139 20.9784 9.95415 21.0501 9.77222L21.0506 9.77177C21.2712 9.20895 21.5854 8.64126 21.9463 8.13581C22.0671 7.96664 22.303 7.93591 22.4701 8.05953L24.7507 9.74649C25.9 10.5968 27.0492 11.4468 28.1985 12.2969C28.5025 12.5218 28.3344 13.0044 27.9564 12.9916C25.5899 12.9117 23.2236 12.8316 20.8575 12.7513Z" fill="#128B58"/>
<path d="M19.6737 15.1684C19.8601 15.0814 20.0819 15.1562 20.1776 15.3383C21.7723 18.3726 23.3671 21.4069 24.9617 24.4413C25.1376 24.7761 24.7761 25.1375 24.4414 24.9615C23.2591 24.3401 22.0767 23.7188 20.8944 23.0975L15.3383 20.1776C15.1562 20.0819 15.0814 19.8601 15.1684 19.6737L15.6428 18.6574C15.9513 17.9964 16.3689 17.3998 16.8843 16.8844C17.3998 16.3689 17.9966 15.9511 18.6574 15.6428L19.6737 15.1684Z" fill="#128B58"/>
</svg>
