<svg xmlns="http://www.w3.org/2000/svg" viewBox="0 0 24 24" role="img" aria-labelledby="notionTitle">
  <title id="notionTitle">Notion</title>
  <path fill="#111111" d="M5.5 2.5 17.9 1.7c.72-.05 1.1.11 1.6.47l2.35 1.9c.4.3.55.62.55.95v13.6c0 .86-.3 1.37-1.26 1.43l-14.41.88c-.57.03-.86-.05-1.19-.42L2.57 17.1c-.4-.42-.57-.72-.57-1.27V4.76c0-.65.28-1.05.88-1.1l1.75-.12c.33-.02.5-.09.87-.33ZM7.14 5.9v11.42l1.67-.1V9.24l5.48 7.64 2.06-.13V5.32l-1.67.1v7.34l-5.2-7.02-2.34.16Zm-2.89-.95v10.27l1.34 1.55V6.58L4.25 4.95Zm13.62.18v10.24l1.7-.1V4.9l-1.7.23Z"/>
</svg>
