<svg xmlns="http://www.w3.org/2000/svg" viewBox="0 0 24 24" role="img" aria-labelledby="sentryTitle">
  <title id="sentryTitle">Sentry</title>
  <path fill="#5B53FF" d="M12 2.5c-4.87 0-8.86 3.82-9.12 8.62l2.3.12A6.83 6.83 0 0 1 12 4.8c3.22 0 5.96 2.17 6.72 5.16H15.8a.9.9 0 0 0-.73 1.42l2.75 3.78a.9.9 0 0 0 1.46 0l2.75-3.78a.9.9 0 0 0-.73-1.42h-1.3C19.2 5.64 15.97 2.5 12 2.5Zm6.82 10.28A6.83 6.83 0 0 1 12 19.2c-3.22 0-5.96-2.17-6.72-5.16H8.2a.9.9 0 0 0 .73-1.42L6.18 8.84a.9.9 0 0 0-1.46 0l-2.75 3.78a.9.9 0 0 0 .73 1.42H4c.8 4.32 4.03 7.46 8 7.46 4.87 0 8.86-3.82 9.12-8.62l-2.3-.12Z"/>
</svg>
