<svg width="256" height="256" viewBox="0 0 256 256" fill="none" xmlns="http://www.w3.org/2000/svg">
  <rect width="256" height="256" rx="56" fill="#FFFFFF"/>
  <path d="M104 36C104 22.7452 114.745 12 128 12C141.255 12 152 22.7452 152 36V92H104V36Z" fill="#36C5F0"/>
  <path d="M104 164C104 150.745 114.745 140 128 140C141.255 140 152 150.745 152 164V220C152 233.255 141.255 244 128 244C114.745 244 104 233.255 104 220V164Z" fill="#2EB67D"/>
  <path d="M36 152C22.7452 152 12 141.255 12 128C12 114.745 22.7452 104 36 104H92V152H36Z" fill="#E01E5A"/>
  <path d="M164 152C150.745 152 140 141.255 140 128C140 114.745 150.745 104 164 104H220C233.255 104 244 114.745 244 128C244 141.255 233.255 152 220 152H164Z" fill="#ECB22E"/>
  <path d="M60 104C46.7452 104 36 93.2548 36 80C36 66.7452 46.7452 56 60 56C73.2548 56 84 66.7452 84 80V104H60Z" fill="#36C5F0"/>
  <path d="M196 104C182.745 104 172 93.2548 172 80C172 66.7452 182.745 56 196 56C209.255 56 220 66.7452 220 80C220 93.2548 209.255 104 196 104Z" fill="#E01E5A"/>
  <path d="M152 196C152 182.745 162.745 172 176 172C189.255 172 200 182.745 200 196C200 209.255 189.255 220 176 220C162.745 220 152 209.255 152 196Z" fill="#2EB67D"/>
  <path d="M56 196C56 182.745 66.7452 172 80 172C93.2548 172 104 182.745 104 196V220H80C66.7452 220 56 209.255 56 196Z" fill="#ECB22E"/>
</svg>
