<svg xmlns="http://www.w3.org/2000/svg" viewBox="0 0 160 48" role="img" aria-labelledby="stripeTitle">
  <title id="stripeTitle">Stripe</title>
  <rect width="160" height="48" rx="12" fill="#635BFF"/>
  <path fill="#fff" d="M52.6 17.3c-4.1 0-6.8 2.1-6.8 5.3 0 2.6 1.9 4.1 5.6 5l1.8.4c2.2.5 3.1 1 3.1 2 0 1.2-1.3 2-3.6 2-2.2 0-4.7-.8-6.4-1.8v4.4c1.6.8 4.1 1.5 6.8 1.5 4.5 0 7.4-2.2 7.4-5.6 0-2.7-1.7-4.2-5.5-5.1l-1.8-.4c-2.3-.5-3.2-.9-3.2-1.9 0-1.1 1.1-1.8 3-1.8 2 0 4.1.5 5.9 1.4v-4.2c-1.7-.7-3.9-1.2-6.3-1.2Z"/>
  <path fill="#fff" d="M70 12.7c-1.5 0-2.7 1.1-2.7 2.6S68.5 18 70 18s2.8-1.2 2.8-2.7-1.2-2.6-2.8-2.6Zm-2.2 6.1h4.4v16.8h-4.4V18.8Z"/>
  <path fill="#fff" d="M84.1 17.3c-4.7 0-7.8 3.6-7.8 9.3 0 5.8 3 9.4 7.8 9.4 2.1 0 3.9-.7 5.1-2v1.6h4.3V18.8h-4.3v1.6c-1.2-1.9-3-3.1-5.1-3.1Zm1.2 14.8c-2.7 0-4.4-2.1-4.4-5.5 0-3.3 1.7-5.4 4.4-5.4 2.6 0 4.4 2.2 4.4 5.4 0 3.4-1.8 5.5-4.4 5.5Z"/>
  <path fill="#fff" d="M105.5 17.3c-2 0-3.8.8-4.9 2.3v-1.9h-4.3v17.9h4.4V25.5c0-2.5 1.4-4.1 3.6-4.1 2.1 0 3.2 1.4 3.2 4v10.2h4.4V24.2c0-4.5-2.1-6.9-6.4-6.9Z"/>
</svg>
